<svg width="16" height="16" viewBox="0 0 16 16" fill="none" xmlns="http://www.w3.org/2000/svg">
<path fill-rule="evenodd" clip-rule="evenodd" d="M8.00484 0C7.09255 4.31283e-05 6.21592 0.366304 5.55974 1.02157C4.90356 1.67684 4.5191 2.56992 4.4874 3.51255C3.61437 3.24638 2.67537 3.34252 1.86979 3.78054C1.06421 4.21857 0.455486 4.96399 0.172882 5.85851C-0.109722 6.75304 -0.0439527 7.72623 0.356226 8.57143C0.756404 9.41664 1.45947 10.0673 2.31615 10.3852C1.81298 11.1608 1.62176 12.1085 1.78304 13.0273C1.94432 13.9462 2.44542 14.764 3.18008 15.3073C3.91618 15.8569 4.82877 16.0922 5.72831 15.9644C6.62784 15.8366 7.44518 15.3554 8.01056 14.6209C8.36263 15.0788 8.816 15.4426 9.33247 15.6815C9.84894 15.9205 10.4134 16.0276 10.9783 15.9939C11.5432 15.9602 12.0919 15.7867 12.5784 15.4879C13.0649 15.1891 13.4747 14.7738 13.7735 14.277C14.1249 13.6895 14.3051 13.0098 14.2926 12.3192C14.28 11.6285 14.0752 10.9563 13.7027 10.3829C14.5532 10.064 15.2505 9.41574 15.6472 8.57505C16.0438 7.73436 16.1087 6.76716 15.8282 5.87788L15.2843 6.06101L15.8271 5.8767C15.5435 4.98485 14.9365 4.24142 14.1337 3.80273C13.3308 3.36404 12.3948 3.26426 11.5223 3.52436C11.4935 2.57966 11.1103 1.6836 10.4538 1.02582C9.79732 0.368036 8.91904 0.000144902 8.00484 0Z" fill="#FA6255"/>
<path d="M8.00418 10.9171C9.39607 10.9171 10.524 9.75923 10.524 8.32964C10.524 6.90004 9.39607 5.74219 8.00418 5.74219C6.61229 5.74219 5.48438 6.90004 5.48438 8.32964C5.48438 9.75923 6.61229 10.9171 8.00418 10.9171Z" fill="white"/>
</svg>
